<?xml version="1.0" encoding="UTF-8"?>
<!-- Generated by Pixelmator Pro 3.7.1 -->
<svg width="1024" height="1024" viewBox="0 0 1024 1024" xmlns="http://www.w3.org/2000/svg">
    <path id="Oval" fill="#000000" fill-rule="evenodd" stroke="none" d="M 1007 512 C 1007 238.066772 784.933228 16 511 16 C 237.066757 16 15 238.066772 15 512 C 15 785.933228 237.066757 1008 511 1008 C 784.933228 1008 1007 785.933228 1007 512 Z"/>
    <text id="ROSS" xml:space="preserve" x="136.258" y="522" font-family="Helvetica Neue" font-size="258" font-weight="700" fill="#ffffff" letter-spacing="12.9">ROSS</text>
    <text id="McF" visibility="hidden" xml:space="preserve"><tspan x="137.454" y="756" font-family="Helvetica Neue" font-size="258" font-weight="700" fill="#ffffff" xml:space="preserve">M</tspan><tspan font-family="Helvetica Neue" font-size="258" font-weight="700" fill="#ffffff" xml:space="preserve">c</tspan><tspan font-family="Helvetica Neue" font-size="258" font-weight="700" fill="#ffffff" xml:space="preserve">F</tspan></text>
    <text id="M" xml:space="preserve" x="137.997" y="746" font-family="Helvetica Neue" font-size="258" font-weight="700" fill="#ffffff">M</text>
    <text id="c" xml:space="preserve" x="357.954" y="696" font-family="Helvetica Neue" font-size="258" font-weight="700" fill="#ffffff">c</text>
    <text id="F" xml:space="preserve" x="495.503" y="746" font-family="Helvetica Neue" font-size="258" font-weight="700" fill="#ffffff">F</text>
    <path id="path1" fill="#ffffff" fill-rule="evenodd" stroke="none" d="M 459 750 C 459 736.745178 448.254822 726 435 726 C 421.745178 726 411 736.745178 411 750 C 411 763.254822 421.745178 774 435 774 C 448.254822 774 459 763.254822 459 750 Z"/>
</svg>
